<svg width="199" height="65" viewBox="0 0 199 65" fill="none" xmlns="http://www.w3.org/2000/svg">
<rect width="199" height="65" fill="white"/>
<path d="M25.84 28.6C25.46 27.9 24.91 27.37 24.19 27.01C23.49 26.63 22.66 26.44 21.7 26.44C20.04 26.44 18.71 26.99 17.71 28.09C16.71 29.17 16.21 30.62 16.21 32.44C16.21 34.38 16.73 35.9 17.77 37C18.83 38.08 20.28 38.62 22.12 38.62C23.38 38.62 24.44 38.3 25.3 37.66C26.18 37.02 26.82 36.1 27.22 34.9H20.71V31.12H31.87V35.89C31.49 37.17 30.84 38.36 29.92 39.46C29.02 40.56 27.87 41.45 26.47 42.13C25.07 42.81 23.49 43.15 21.73 43.15C19.65 43.15 17.79 42.7 16.15 41.8C14.53 40.88 13.26 39.61 12.34 37.99C11.44 36.37 10.99 34.52 10.99 32.44C10.99 30.36 11.44 28.51 12.34 26.89C13.26 25.25 14.53 23.98 16.15 23.08C17.77 22.16 19.62 21.7 21.7 21.7C24.22 21.7 26.34 22.31 28.06 23.53C29.8 24.75 30.95 26.44 31.51 28.6H25.84ZM33.6916 34.6C33.6916 32.88 34.0116 31.37 34.6516 30.07C35.3116 28.77 36.2016 27.77 37.3216 27.07C38.4416 26.37 39.6916 26.02 41.0716 26.02C42.2516 26.02 43.2816 26.26 44.1616 26.74C45.0616 27.22 45.7516 27.85 46.2316 28.63V26.26H51.3616V43H46.2316V40.63C45.7316 41.41 45.0316 42.04 44.1316 42.52C43.2516 43 42.2216 43.24 41.0416 43.24C39.6816 43.24 38.4416 42.89 37.3216 42.19C36.2016 41.47 35.3116 40.46 34.6516 39.16C34.0116 37.84 33.6916 36.32 33.6916 34.6ZM46.2316 34.63C46.2316 33.35 45.8716 32.34 45.1516 31.6C44.4516 30.86 43.5916 30.49 42.5716 30.49C41.5516 30.49 40.6816 30.86 39.9616 31.6C39.2616 32.32 38.9116 33.32 38.9116 34.6C38.9116 35.88 39.2616 36.9 39.9616 37.66C40.6816 38.4 41.5516 38.77 42.5716 38.77C43.5916 38.77 44.4516 38.4 45.1516 37.66C45.8716 36.92 46.2316 35.91 46.2316 34.63ZM64.4029 38.65V43H61.7929C59.9329 43 58.4829 42.55 57.4429 41.65C56.4029 40.73 55.8829 39.24 55.8829 37.18V30.52H53.8429V26.26H55.8829V22.18H61.0129V26.26H64.3729V30.52H61.0129V37.24C61.0129 37.74 61.1329 38.1 61.3729 38.32C61.6129 38.54 62.0129 38.65 62.5729 38.65H64.4029ZM77.5504 26.08C79.4704 26.08 81.0104 26.72 82.1704 28C83.3304 29.26 83.9104 31 83.9104 33.22V43H78.8104V33.91C78.8104 32.79 78.5204 31.92 77.9404 31.3C77.3604 30.68 76.5804 30.37 75.6004 30.37C74.6204 30.37 73.8404 30.68 73.2604 31.3C72.6804 31.92 72.3904 32.79 72.3904 33.91V43H67.2604V20.8H72.3904V28.51C72.9104 27.77 73.6204 27.18 74.5204 26.74C75.4204 26.3 76.4304 26.08 77.5504 26.08ZM103.255 34.36C103.255 34.84 103.225 35.34 103.165 35.86H91.5552C91.6352 36.9 91.9652 37.7 92.5452 38.26C93.1452 38.8 93.8752 39.07 94.7352 39.07C96.0152 39.07 96.9052 38.53 97.4052 37.45H102.865C102.585 38.55 102.075 39.54 101.335 40.42C100.615 41.3 99.7052 41.99 98.6052 42.49C97.5052 42.99 96.2752 43.24 94.9152 43.24C93.2752 43.24 91.8152 42.89 90.5352 42.19C89.2552 41.49 88.2552 40.49 87.5352 39.19C86.8152 37.89 86.4552 36.37 86.4552 34.63C86.4552 32.89 86.8052 31.37 87.5052 30.07C88.2252 28.77 89.2252 27.77 90.5052 27.07C91.7852 26.37 93.2552 26.02 94.9152 26.02C96.5352 26.02 97.9752 26.36 99.2352 27.04C100.495 27.72 101.475 28.69 102.175 29.95C102.895 31.21 103.255 32.68 103.255 34.36ZM98.0052 33.01C98.0052 32.13 97.7052 31.43 97.1052 30.91C96.5052 30.39 95.7552 30.13 94.8552 30.13C93.9952 30.13 93.2652 30.38 92.6652 30.88C92.0852 31.38 91.7252 32.09 91.5852 33.01H98.0052ZM111.092 29.05C111.692 28.13 112.442 27.41 113.342 26.89C114.242 26.35 115.242 26.08 116.342 26.08V31.51H114.932C113.652 31.51 112.692 31.79 112.052 32.35C111.412 32.89 111.092 33.85 111.092 35.23V43H105.962V26.26H111.092V29.05ZM123.924 26.05V30.31H130.794V34.27H123.924V38.89H131.694V43H118.794V21.94H131.694V26.05H123.924ZM134.004 34.6C134.004 32.88 134.324 31.37 134.964 30.07C135.624 28.77 136.514 27.77 137.634 27.07C138.754 26.37 140.004 26.02 141.384 26.02C142.564 26.02 143.594 26.26 144.474 26.74C145.374 27.22 146.064 27.85 146.544 28.63V26.26H151.674V43H146.544V40.63C146.044 41.41 145.344 42.04 144.444 42.52C143.564 43 142.534 43.24 141.354 43.24C139.994 43.24 138.754 42.89 137.634 42.19C136.514 41.47 135.624 40.46 134.964 39.16C134.324 37.84 134.004 36.32 134.004 34.6ZM146.544 34.63C146.544 33.35 146.184 32.34 145.464 31.6C144.764 30.86 143.904 30.49 142.884 30.49C141.864 30.49 140.994 30.86 140.274 31.6C139.574 32.32 139.224 33.32 139.224 34.6C139.224 35.88 139.574 36.9 140.274 37.66C140.994 38.4 141.864 38.77 142.884 38.77C143.904 38.77 144.764 38.4 145.464 37.66C146.184 36.92 146.544 35.91 146.544 34.63ZM162.195 43.24C160.735 43.24 159.435 42.99 158.295 42.49C157.155 41.99 156.255 41.31 155.595 40.45C154.935 39.57 154.565 38.59 154.485 37.51H159.555C159.615 38.09 159.885 38.56 160.365 38.92C160.845 39.28 161.435 39.46 162.135 39.46C162.775 39.46 163.265 39.34 163.605 39.1C163.965 38.84 164.145 38.51 164.145 38.11C164.145 37.63 163.895 37.28 163.395 37.06C162.895 36.82 162.085 36.56 160.965 36.28C159.765 36 158.765 35.71 157.965 35.41C157.165 35.09 156.475 34.6 155.895 33.94C155.315 33.26 155.025 32.35 155.025 31.21C155.025 30.25 155.285 29.38 155.805 28.6C156.345 27.8 157.125 27.17 158.145 26.71C159.185 26.25 160.415 26.02 161.835 26.02C163.935 26.02 165.585 26.54 166.785 27.58C168.005 28.62 168.705 30 168.885 31.72H164.145C164.065 31.14 163.805 30.68 163.365 30.34C162.945 30 162.385 29.83 161.685 29.83C161.085 29.83 160.625 29.95 160.305 30.19C159.985 30.41 159.825 30.72 159.825 31.12C159.825 31.6 160.075 31.96 160.575 32.2C161.095 32.44 161.895 32.68 162.975 32.92C164.215 33.24 165.225 33.56 166.005 33.88C166.785 34.18 167.465 34.68 168.045 35.38C168.645 36.06 168.955 36.98 168.975 38.14C168.975 39.12 168.695 40 168.135 40.78C167.595 41.54 166.805 42.14 165.765 42.58C164.745 43.02 163.555 43.24 162.195 43.24ZM187.894 34.36C187.894 34.84 187.864 35.34 187.804 35.86H176.194C176.274 36.9 176.604 37.7 177.184 38.26C177.784 38.8 178.514 39.07 179.374 39.07C180.654 39.07 181.544 38.53 182.044 37.45H187.504C187.224 38.55 186.714 39.54 185.974 40.42C185.254 41.3 184.344 41.99 183.244 42.49C182.144 42.99 180.914 43.24 179.554 43.24C177.914 43.24 176.454 42.89 175.174 42.19C173.894 41.49 172.894 40.49 172.174 39.19C171.454 37.89 171.094 36.37 171.094 34.63C171.094 32.89 171.444 31.37 172.144 30.07C172.864 28.77 173.864 27.77 175.144 27.07C176.424 26.37 177.894 26.02 179.554 26.02C181.174 26.02 182.614 26.36 183.874 27.04C185.134 27.72 186.114 28.69 186.814 29.95C187.534 31.21 187.894 32.68 187.894 34.36ZM182.644 33.01C182.644 32.13 182.344 31.43 181.744 30.91C181.144 30.39 180.394 30.13 179.494 30.13C178.634 30.13 177.904 30.38 177.304 30.88C176.724 31.38 176.364 32.09 176.224 33.01H182.644Z" fill="#1F2184"/>
</svg>
